<?xml version="1.0" encoding="UTF-8" standalone="no"?>
<svg
   version="1.1"
   id="Layer_1"
   x="0px"
   y="0px"
   viewBox="0 0 511.999 511.999"
   style="enable-background:new 0 0 511.999 511.999;"
   xml:space="preserve"
   sodipodi:docname="magic-wand-simplify.svg"
   inkscape:version="1.3 (0e150ed, 2023-07-21)"
   xmlns:inkscape="http://www.inkscape.org/namespaces/inkscape"
   xmlns:sodipodi="http://sodipodi.sourceforge.net/DTD/sodipodi-0.dtd"
   xmlns="http://www.w3.org/2000/svg"
   xmlns:svg="http://www.w3.org/2000/svg"><defs
   id="defs14" /><sodipodi:namedview
   id="namedview14"
   pagecolor="#505050"
   bordercolor="#eeeeee"
   borderopacity="1"
   inkscape:showpageshadow="0"
   inkscape:pageopacity="0"
   inkscape:pagecheckerboard="0"
   inkscape:deskcolor="#505050"
   showgrid="false"
   inkscape:zoom="1"
   inkscape:cx="264"
   inkscape:cy="196.5"
   inkscape:window-width="1376"
   inkscape:window-height="934"
   inkscape:window-x="1073"
   inkscape:window-y="307"
   inkscape:window-maximized="0"
   inkscape:current-layer="g4" />&#10;<g
   style="display:none;opacity:0.6"
   id="g2">&#10;	<circle
   style="fill:#aeb2d3"
   cx="238.56134"
   cy="286.93604"
   r="215.951"
   id="circle1" />&#10;    <circle
   style="fill:#efe388"
   cx="393.03101"
   cy="118.977"
   r="107.976"
   id="circle2" />&#10;</g>&#10;    &#10;    &#10;    &#10;    &#10;    &#10;    &#10;    &#10;    &#10;    &#10;    &#10;    &#10;    &#10;    <g
   id="g1"
   style="display:inline"><path
     style="display:inline;fill:#6f7475"
     d="M 326.864,117.269 12.979,431.154 c -9.37,9.37 -1.774,32.16 16.967,50.9 18.741,18.74 41.53,26.338 50.9,16.967 L 394.731,185.136 Z"
     id="path2" /><path
     style="display:inline;fill:#4e565a"
     d="M 343.831,168.169 29.946,482.054 c 18.741,18.741 41.53,26.338 50.9,16.967 L 394.731,185.136 Z"
     id="path3" /><path
     style="display:inline;fill:#5f6568"
     d="M 326.864,117.269 12.979,431.154 c -6.279,6.279 -4.93,18.584 2.276,31.658 L 343.831,134.236 Z"
     id="path4" /><path
     style="display:inline;fill:#e7e4cd"
     d="m 369.281,74.851 -42.416,42.416 c -9.37,9.37 -1.774,32.159 16.967,50.9 18.741,18.741 41.53,26.338 50.9,16.967 l 42.416,-42.416 z"
     id="path5" /><path
     style="display:inline;fill:#c1bdab;stroke-width:1.00157;stroke-dasharray:none"
     d="m 403.214,108.786 -59.383,59.383 c 18.741,18.741 41.53,26.338 50.9,16.967 l 42.416,-42.416 z"
     id="path6" /><ellipse
     transform="matrix(0.7071,-0.7071,0.7071,0.7071,41.1775,316.9756)"
     style="display:inline;fill:#d5d2bd"
     cx="403.21201"
     cy="108.782"
     rx="23.993999"
     ry="47.988998"
     id="ellipse6" /><path
     d="m 443.565,149.022 c 13.222,-13.319 5.918,-40.626 -17.021,-63.566 -22.97,-22.97 -50.324,-30.264 -63.625,-16.967 l -25.45,25.45 c -3.514,3.515 -3.514,9.212 0,12.726 3.514,3.513 9.212,3.513 12.724,0 l 8.231,-8.231 c 1.496,3.142 4.679,5.125 8.113,5.125 0.795,0 1.603,-0.107 2.405,-0.328 4.789,-1.326 7.597,-6.283 6.271,-11.072 -1.405,-5.077 -1.242,-9.268 0.428,-10.942 l 10e-4,-0.001 c 1.88,-1.881 6.877,-1.836 12.729,0.115 8.194,2.731 17.469,8.873 25.446,16.851 16.574,16.573 21.188,33.954 16.967,38.174 -4.224,4.225 -21.601,-0.392 -38.175,-16.968 -3.514,-3.513 -9.212,-3.513 -12.724,0 -3.514,3.515 -3.514,9.212 0,12.726 10.874,10.873 22.722,18.212 33.603,21.539 l -13.243,13.243 c -2.714,2.714 -3.322,6.726 -1.845,10.032 -3.306,-1.476 -7.318,-0.867 -10.031,1.844 -1.881,1.88 -6.877,1.834 -12.728,-0.115 -8.194,-2.731 -17.469,-8.873 -25.446,-16.853 -7.978,-7.977 -14.121,-17.253 -16.851,-25.446 -1.95,-5.849 -1.995,-10.84 -0.119,-12.723 l 0.004,-0.004 c 3.514,-3.515 3.514,-9.212 0,-12.726 -0.578,-0.577 -1.219,-1.05 -1.894,-1.437 -2.049,-1.175 -4.455,-1.477 -6.69,-0.909 -1.516,0.385 -2.954,1.16 -4.14,2.347 L 6.617,424.791 C -6.682,438.09 0.612,465.444 23.584,488.416 38.829,503.661 56,512 69.717,511.999 c 6.951,0 13.019,-2.144 17.493,-6.618 L 401.094,191.497 c 2.714,-2.714 3.322,-6.724 1.845,-10.032 1.165,0.521 2.415,0.789 3.669,0.789 2.302,0 4.606,-0.878 6.362,-2.635 l 30.53,-30.531 c 0.004,-0.004 0.007,-0.006 0.011,-0.01 0.019,-0.015 0.034,-0.037 0.054,-0.056 z M 74.485,492.657 c -1.881,1.88 -6.878,1.836 -12.728,-0.115 C 53.563,489.811 44.288,483.669 36.31,475.691 19.736,459.118 15.122,441.737 19.343,437.517 L 315.927,140.934 c 0.115,0.372 0.218,0.74 0.344,1.117 3.638,10.914 11.167,22.449 21.199,32.481 10.032,10.032 21.568,17.562 32.48,21.199 0.373,0.125 0.741,0.235 1.112,0.35 z"
     id="path7"
     style="display:inline" /><path
     d="m 273.053,127.972 h 13.997 c 4.969,0 8.998,-4.027 8.998,-8.998 0,-4.97 -4.029,-8.998 -8.998,-8.998 h -13.997 c -4.969,0 -8.998,4.027 -8.998,8.998 0,4.97 4.029,8.998 8.998,8.998 z"
     id="path8"
     style="display:inline" /><path
     d="m 324.437,63.111 c 1.756,1.756 4.06,2.635 6.362,2.635 2.302,0 4.606,-0.878 6.362,-2.635 3.514,-3.515 3.514,-9.212 0,-12.726 L 321.604,34.828 c -3.514,-3.513 -9.212,-3.513 -12.724,0 -3.514,3.515 -3.514,9.212 0,12.726 z"
     id="path9"
     style="display:inline" /><path
     d="m 393.026,39.991 c 4.969,0 8.998,-4.027 8.998,-8.998 V 8.998 c 0,-4.97 -4.029,-8.998 -8.998,-8.998 -4.969,0 -8.998,4.027 -8.998,8.998 v 21.995 c 0,4.97 4.029,8.998 8.998,8.998 z"
     id="path10"
     style="display:inline" /><path
     d="m 503.001,109.976 h -21.995 c -4.969,0 -8.998,4.027 -8.998,8.998 0,4.97 4.029,8.998 8.998,8.998 h 21.995 c 4.969,0 8.998,-4.027 8.998,-8.998 0,-4.971 -4.028,-8.998 -8.998,-8.998 z"
     id="path11"
     style="display:inline" /><path
     d="m 461.614,174.838 c -3.514,-3.513 -9.212,-3.513 -12.724,0 -3.514,3.515 -3.514,9.212 0,12.726 l 15.557,15.557 c 1.756,1.756 4.06,2.635 6.362,2.635 2.302,0 4.606,-0.878 6.362,-2.635 3.514,-3.515 3.514,-9.212 0,-12.726 z"
     id="path12"
     style="display:inline" /><path
     d="m 393.026,215.953 c -4.969,0 -8.998,4.027 -8.998,8.998 v 13.996 c 0,4.97 4.029,8.998 8.998,8.998 4.969,0 8.998,-4.027 8.998,-8.998 v -13.996 c 0,-4.97 -4.029,-8.998 -8.998,-8.998 z"
     id="path13"
     style="display:inline" /></g>&#10;    &#10;    &#10;<g
   id="g3"
   style="display:inline"><rect
     style="display:inline;fill:#ffffff;fill-opacity:1;stroke:#ff0024;stroke-width:13.4527;stroke-dasharray:none;stroke-opacity:1"
     id="rect16"
     width="80.310959"
     height="74.36142"
     x="30.328554"
     y="360.0827" /><rect
     style="fill:#000000;fill-opacity:1;stroke:#000000;stroke-width:11.00424867;stroke-dasharray:none;stroke-opacity:1"
     id="rect17-6"
     width="0.97730196"
     height="66.635193"
     x="125.19435"
     y="92.663895"
     transform="matrix(0.96987882,0.24358793,-0.20529608,0.97869991,0,0)" /><rect
     style="fill:#000000;fill-opacity:1;stroke:#000000;stroke-width:11;stroke-dasharray:none;stroke-opacity:1"
     id="rect17-6-3"
     width="0.68007004"
     height="122.77574"
     x="156.36028"
     y="-212.09401"
     transform="matrix(0.40934065,0.91238163,-0.91372859,0.40632507,0,0)"
     inkscape:transform-center-x="-5.9377529"
     inkscape:transform-center-y="-3.0362532" /><rect
     style="display:inline;fill:#ffffff;fill-opacity:1;stroke:#ff0024;stroke-width:13.4527;stroke-dasharray:none;stroke-opacity:1"
     id="rect16-0"
     width="80.310959"
     height="74.36142"
     x="30.328554"
     y="187.37045" /><rect
     style="display:inline;fill:#ffffff;fill-opacity:1;stroke:#ff0024;stroke-width:13.4527;stroke-dasharray:none;stroke-opacity:1"
     id="rect16-0-9"
     width="80.310959"
     height="74.36142"
     x="51.607113"
     y="76.336121"
     transform="rotate(-14.568462)" /><rect
     style="display:inline;fill:#ffffff;fill-opacity:1;stroke:#ff0024;stroke-width:13.4527;stroke-dasharray:none;stroke-opacity:1"
     id="rect16-3"
     width="80.310959"
     height="74.36142"
     x="267.76202"
     y="21.697588" /><rect
     style="fill:#000000;fill-opacity:1;stroke:#000000;stroke-width:11.377;stroke-dasharray:none;stroke-opacity:1"
     id="rect17"
     width="0.96805024"
     height="73.521538"
     x="67.49427"
     y="274.14651" /></g><g
   id="g4"
   style="display:inline"><rect
     style="fill:#000000;fill-opacity:1;stroke:#000000;stroke-width:11.4048;stroke-dasharray:none;stroke-opacity:1"
     id="rect17-4"
     width="3.6572402"
     height="282.98398"
     x="501.61334"
     y="-251.06873"
     transform="matrix(0.58199734,0.81319069,-0.54297673,0.83974774,0,0)" /><rect
     style="display:inline;fill:#ffffff;fill-opacity:1;stroke:#ff0024;stroke-width:13.4527;stroke-dasharray:none;stroke-opacity:1"
     id="rect16-5"
     width="80.310959"
     height="74.36142"
     x="239.89603"
     y="425.63129" /><rect
     style="display:inline;fill:#ffffff;fill-opacity:1;stroke:#ff0024;stroke-width:13.4527;stroke-dasharray:none;stroke-opacity:1"
     id="rect16-58"
     width="80.310959"
     height="74.36142"
     x="389.07953"
     y="168.57529"
     inkscape:label="rect16-58" /></g></svg>
