<?xml version="1.0" ?><!-- Uploaded to: SVG Repo, www.svgrepo.com, Generator: SVG Repo Mixer Tools -->
<svg fill="#000000" width="800px" height="800px" viewBox="0 0 100 100" data-name="Layer 1" id="Layer_1" xmlns="http://www.w3.org/2000/svg"><title/><path d="M42.76,59.24H57.24a2,2,0,0,0,2-2V42.76a2,2,0,0,0-2-2H42.76a2,2,0,0,0-2,2V57.24A2,2,0,0,0,42.76,59.24Zm2-14.48H55.24V55.24H44.76ZM80,52a2,2,0,0,0,0-4H72.84V37.83H80a2,2,0,0,0,0-4H72.84V29.16a2,2,0,0,0-2-2H66.17V20a2,2,0,0,0-4,0v7.16H52V20a2,2,0,0,0-4,0v7.16H37.83V20a2,2,0,0,0-4,0v7.16H29.16a2,2,0,0,0-2,2v4.67H20a2,2,0,0,0,0,4h7.16V48H20a2,2,0,0,0,0,4h7.16V62.17H20a2,2,0,0,0,0,4h7.16v4.67a2,2,0,0,0,2,2h4.67V80a2,2,0,0,0,4,0V72.84H48V80a2,2,0,0,0,4,0V72.84H62.17V80a2,2,0,0,0,4,0V72.84h4.67a2,2,0,0,0,2-2V66.17H80a2,2,0,0,0,0-4H72.84V52ZM68.84,68.84H31.16V31.16H68.84Z"/></svg>