<?xml version="1.0" encoding="UTF-8" standalone="no"?>
<svg
   version="1.1"
   id="Layer_1"
   x="0px"
   y="0px"
   viewBox="0 0 511.999 511.999"
   style="enable-background:new 0 0 511.999 511.999;"
   xml:space="preserve"
   sodipodi:docname="magicwand-info.svg"
   inkscape:version="1.3 (0e150ed, 2023-07-21)"
   xmlns:inkscape="http://www.inkscape.org/namespaces/inkscape"
   xmlns:sodipodi="http://sodipodi.sourceforge.net/DTD/sodipodi-0.dtd"
   xmlns="http://www.w3.org/2000/svg"
   xmlns:svg="http://www.w3.org/2000/svg"><defs
   id="defs14" /><sodipodi:namedview
   id="namedview14"
   pagecolor="#505050"
   bordercolor="#eeeeee"
   borderopacity="1"
   inkscape:showpageshadow="0"
   inkscape:pageopacity="0"
   inkscape:pagecheckerboard="0"
   inkscape:deskcolor="#505050"
   inkscape:zoom="1.1561177"
   inkscape:cx="229.21542"
   inkscape:cy="307.06217"
   inkscape:window-width="1888"
   inkscape:window-height="971"
   inkscape:window-x="1109"
   inkscape:window-y="303"
   inkscape:window-maximized="0"
   inkscape:current-layer="Layer_1" />&#10;&#10;    &#10;    &#10;    &#10;    &#10;    &#10;    &#10;    &#10;    &#10;    &#10;    &#10;    &#10;    &#10;    &#10;    &#10;    <g
   id="g17"
   transform="matrix(0.71015993,0,0,0.71015993,77.846677,61.412434)"><g
     style="opacity:0.6"
     id="g2">&#10;	<circle
   style="display:inline;fill:#aeb2d3"
   cx="225.069"
   cy="286.94"
   r="215.951"
   id="circle1" />&#10;    <circle
   style="display:inline;fill:#efe388"
   cx="393.03101"
   cy="118.977"
   r="107.976"
   id="circle2" />&#10;</g><g
     id="g16"><path
       style="fill:#6f7475"
       d="M 326.864,117.269 12.979,431.154 c -9.37,9.37 -1.774,32.16 16.967,50.9 18.741,18.74 41.53,26.338 50.9,16.967 L 394.731,185.136 Z"
       id="path2" /><path
       style="fill:#4e565a"
       d="M 343.831,168.169 29.946,482.054 c 18.741,18.741 41.53,26.338 50.9,16.967 L 394.731,185.136 Z"
       id="path3" /><path
       style="fill:#5f6568"
       d="M 326.864,117.269 12.979,431.154 c -6.279,6.279 -4.93,18.584 2.276,31.658 L 343.831,134.236 Z"
       id="path4" /><path
       style="fill:#e7e4cd"
       d="m 369.281,74.851 -42.416,42.416 c -9.37,9.37 -1.774,32.159 16.967,50.9 18.741,18.741 41.53,26.338 50.9,16.967 l 42.416,-42.416 z"
       id="path5" /><path
       style="fill:#c1bdab"
       d="m 403.214,108.786 -59.383,59.383 c 18.741,18.741 41.53,26.338 50.9,16.967 l 42.416,-42.416 z"
       id="path6" /><ellipse
       transform="matrix(0.7071,-0.7071,0.7071,0.7071,41.1775,316.9756)"
       style="fill:#d5d2bd"
       cx="403.21201"
       cy="108.782"
       rx="23.993999"
       ry="47.988998"
       id="ellipse6" /><path
       d="m 443.565,149.022 c 13.222,-13.319 5.918,-40.626 -17.021,-63.566 -22.97,-22.97 -50.324,-30.264 -63.625,-16.967 l -25.45,25.45 c -3.514,3.515 -3.514,9.212 0,12.726 3.514,3.513 9.212,3.513 12.724,0 l 8.231,-8.231 c 1.496,3.142 4.679,5.125 8.113,5.125 0.795,0 1.603,-0.107 2.405,-0.328 4.789,-1.326 7.597,-6.283 6.271,-11.072 -1.405,-5.077 -1.242,-9.268 0.428,-10.942 l 10e-4,-0.001 c 1.88,-1.881 6.877,-1.836 12.729,0.115 8.194,2.731 17.469,8.873 25.446,16.851 16.574,16.573 21.188,33.954 16.967,38.174 -4.224,4.225 -21.601,-0.392 -38.175,-16.968 -3.514,-3.513 -9.212,-3.513 -12.724,0 -3.514,3.515 -3.514,9.212 0,12.726 10.874,10.873 22.722,18.212 33.603,21.539 l -13.243,13.243 c -2.714,2.714 -3.322,6.726 -1.845,10.032 -3.306,-1.476 -7.318,-0.867 -10.031,1.844 -1.881,1.88 -6.877,1.834 -12.728,-0.115 -8.194,-2.731 -17.469,-8.873 -25.446,-16.853 -7.978,-7.977 -14.121,-17.253 -16.851,-25.446 -1.95,-5.849 -1.995,-10.84 -0.119,-12.723 l 0.004,-0.004 c 3.514,-3.515 3.514,-9.212 0,-12.726 -0.578,-0.577 -1.219,-1.05 -1.894,-1.437 -2.049,-1.175 -4.455,-1.477 -6.69,-0.909 -1.516,0.385 -2.954,1.16 -4.14,2.347 L 6.617,424.791 C -6.682,438.09 0.612,465.444 23.584,488.416 38.829,503.661 56,512 69.717,511.999 c 6.951,0 13.019,-2.144 17.493,-6.618 L 401.094,191.497 c 2.714,-2.714 3.322,-6.724 1.845,-10.032 1.165,0.521 2.415,0.789 3.669,0.789 2.302,0 4.606,-0.878 6.362,-2.635 l 30.53,-30.531 c 0.004,-0.004 0.007,-0.006 0.011,-0.01 0.019,-0.015 0.034,-0.037 0.054,-0.056 z M 74.485,492.657 c -1.881,1.88 -6.878,1.836 -12.728,-0.115 C 53.563,489.811 44.288,483.669 36.31,475.691 19.736,459.118 15.122,441.737 19.343,437.517 L 315.927,140.934 c 0.115,0.372 0.218,0.74 0.344,1.117 3.638,10.914 11.167,22.449 21.199,32.481 10.032,10.032 21.568,17.562 32.48,21.199 0.373,0.125 0.741,0.235 1.112,0.35 z"
       id="path7" /><path
       d="m 273.053,127.972 h 13.997 c 4.969,0 8.998,-4.027 8.998,-8.998 0,-4.97 -4.029,-8.998 -8.998,-8.998 h -13.997 c -4.969,0 -8.998,4.027 -8.998,8.998 0,4.97 4.029,8.998 8.998,8.998 z"
       id="path8"
       style="display:inline" /><path
       d="m 324.437,63.111 c 1.756,1.756 4.06,2.635 6.362,2.635 2.302,0 4.606,-0.878 6.362,-2.635 3.514,-3.515 3.514,-9.212 0,-12.726 L 321.604,34.828 c -3.514,-3.513 -9.212,-3.513 -12.724,0 -3.514,3.515 -3.514,9.212 0,12.726 z"
       id="path9" /><path
       d="m 393.026,39.991 c 4.969,0 8.998,-4.027 8.998,-8.998 V 8.998 c 0,-4.97 -4.029,-8.998 -8.998,-8.998 -4.969,0 -8.998,4.027 -8.998,8.998 v 21.995 c 0,4.97 4.029,8.998 8.998,8.998 z"
       id="path10" /><path
       d="m 503.001,109.976 h -21.995 c -4.969,0 -8.998,4.027 -8.998,8.998 0,4.97 4.029,8.998 8.998,8.998 h 21.995 c 4.969,0 8.998,-4.027 8.998,-8.998 0,-4.971 -4.028,-8.998 -8.998,-8.998 z"
       id="path11" /><path
       d="m 461.614,174.838 c -3.514,-3.513 -9.212,-3.513 -12.724,0 -3.514,3.515 -3.514,9.212 0,12.726 l 15.557,15.557 c 1.756,1.756 4.06,2.635 6.362,2.635 2.302,0 4.606,-0.878 6.362,-2.635 3.514,-3.515 3.514,-9.212 0,-12.726 z"
       id="path12" /><path
       d="m 393.026,215.953 c -4.969,0 -8.998,4.027 -8.998,8.998 v 13.996 c 0,4.97 4.029,8.998 8.998,8.998 4.969,0 8.998,-4.027 8.998,-8.998 v -13.996 c 0,-4.97 -4.029,-8.998 -8.998,-8.998 z"
       id="path13" /><g
       id="g13">&#10;</g><g
       id="g14">&#10;</g></g></g>&#10;<g
   style="fill:none"
   id="g15"
   transform="matrix(23.576975,0,0,23.83112,-24.405533,-30.130594)"><path
     d="M 12.223571,16.851987 V 12.366859 10.409285"
     stroke="#1c274c"
     stroke-width="1.55435"
     stroke-linecap="round"
     id="path1"
     style="display:none;fill:#1c274c;fill-opacity:1;stroke:#216bf9;stroke-width:1.58021;stroke-dasharray:none;stroke-opacity:1"
     sodipodi:nodetypes="ccc" /><circle
     cx="-11.300589"
     cy="-7.6869421"
     r="1.6250001"
     transform="rotate(174.01535)"
     fill="#1c274c"
     id="circle2-3"
     style="display:none;fill:#216bf9;fill-opacity:1;stroke:none;stroke-width:0.00516948;stroke-dasharray:none;stroke-opacity:1"
     inkscape:label="circle2-3" /><circle
     opacity="0.5"
     cx="12"
     cy="12"
     r="10"
     stroke="#1c274c"
     stroke-width="1.5"
     id="circle1-9"
     style="fill:none;fill-opacity:1;stroke:#002aff;stroke-opacity:1;stroke-width:1.74048727;stroke-dasharray:none" /></g></svg>
