<?xml version="1.0" encoding="iso-8859-1"?>
<svg version="1.1" id="Layer_1" xmlns="http://www.w3.org/2000/svg"  x="0px" y="0px" viewBox="0 0 511.999 511.999" style="enable-background:new 0 0 511.999 511.999;" xml:space="preserve">
<g style="opacity:0.6;">
	<circle style="fill:#AEB2D3;" cx="225.069" cy="286.94" r="215.951"/>
    <circle style="fill:#EFE388;" cx="393.031" cy="118.977" r="107.976"/>
</g>
    <path style="fill:#6F7475;" d="M326.864,117.269L12.979,431.154c-9.37,9.37-1.774,32.16,16.967,50.9
	c18.741,18.74,41.53,26.338,50.9,16.967l313.885-313.885L326.864,117.269z"/>
    <path style="fill:#4E565A;" d="M343.831,168.169L29.946,482.054c18.741,18.741,41.53,26.338,50.9,16.967l313.885-313.885
	L343.831,168.169z"/>
    <path style="fill:#5F6568;" d="M326.864,117.269L12.979,431.154c-6.279,6.279-4.93,18.584,2.276,31.658l328.576-328.576
	L326.864,117.269z"/>
    <path style="fill:#E7E4CD;" d="M369.281,74.851l-42.416,42.416c-9.37,9.37-1.774,32.159,16.967,50.9s41.53,26.338,50.9,16.967
	l42.416-42.416L369.281,74.851z"/>
    <path style="fill:#C1BDAB;" d="M403.214,108.786l-59.383,59.383c18.741,18.741,41.53,26.338,50.9,16.967l42.416-42.416
	L403.214,108.786z"/>
    <ellipse transform="matrix(0.7071 -0.7071 0.7071 0.7071 41.1775 316.9756)" style="fill:#D5D2BD;" cx="403.212"
             cy="108.782" rx="23.994" ry="47.989"/>
    <path d="M443.565,149.022c13.222-13.319,5.918-40.626-17.021-63.566c-22.97-22.97-50.324-30.264-63.625-16.967l-25.45,25.45
	c-3.514,3.515-3.514,9.212,0,12.726c3.514,3.513,9.212,3.513,12.724,0l8.231-8.231c1.496,3.142,4.679,5.125,8.113,5.125
	c0.795,0,1.603-0.107,2.405-0.328c4.789-1.326,7.597-6.283,6.271-11.072c-1.405-5.077-1.242-9.268,0.428-10.942l0.001-0.001
	c1.88-1.881,6.877-1.836,12.729,0.115c8.194,2.731,17.469,8.873,25.446,16.851c16.574,16.573,21.188,33.954,16.967,38.174
	c-4.224,4.225-21.601-0.392-38.175-16.968c-3.514-3.513-9.212-3.513-12.724,0c-3.514,3.515-3.514,9.212,0,12.726
	c10.874,10.873,22.722,18.212,33.603,21.539l-13.243,13.243c-2.714,2.714-3.322,6.726-1.845,10.032
	c-3.306-1.476-7.318-0.867-10.031,1.844c-1.881,1.88-6.877,1.834-12.728-0.115c-8.194-2.731-17.469-8.873-25.446-16.853
	c-7.978-7.977-14.121-17.253-16.851-25.446c-1.95-5.849-1.995-10.84-0.119-12.723l0.004-0.004c3.514-3.515,3.514-9.212,0-12.726
	c-0.578-0.577-1.219-1.05-1.894-1.437c-2.049-1.175-4.455-1.477-6.69-0.909c-1.516,0.385-2.954,1.16-4.14,2.347L6.617,424.791
	c-13.299,13.299-6.005,40.653,16.967,63.625C38.829,503.661,56,512,69.717,511.999c6.951,0,13.019-2.144,17.493-6.618
	l313.884-313.884c2.714-2.714,3.322-6.724,1.845-10.032c1.165,0.521,2.415,0.789,3.669,0.789c2.302,0,4.606-0.878,6.362-2.635
	l30.53-30.531c0.004-0.004,0.007-0.006,0.011-0.01C443.53,149.063,443.545,149.041,443.565,149.022z M74.485,492.657
	c-1.881,1.88-6.878,1.836-12.728-0.115c-8.194-2.731-17.469-8.873-25.447-16.851c-16.574-16.573-21.188-33.954-16.967-38.174
	l296.584-296.583c0.115,0.372,0.218,0.74,0.344,1.117c3.638,10.914,11.167,22.449,21.199,32.481s21.568,17.562,32.48,21.199
	c0.373,0.125,0.741,0.235,1.112,0.35L74.485,492.657z"/>
    <path d="M273.053,127.972h13.997c4.969,0,8.998-4.027,8.998-8.998c0-4.97-4.029-8.998-8.998-8.998h-13.997
	c-4.969,0-8.998,4.027-8.998,8.998C264.055,123.944,268.084,127.972,273.053,127.972z"/>
    <path d="M324.437,63.111c1.756,1.756,4.06,2.635,6.362,2.635c2.302,0,4.606-0.878,6.362-2.635c3.514-3.515,3.514-9.212,0-12.726
	l-15.557-15.557c-3.514-3.513-9.212-3.513-12.724,0c-3.514,3.515-3.514,9.212,0,12.726L324.437,63.111z"/>
    <path d="M393.026,39.991c4.969,0,8.998-4.027,8.998-8.998V8.998c0-4.97-4.029-8.998-8.998-8.998c-4.969,0-8.998,4.027-8.998,8.998
	v21.995C384.028,35.963,388.057,39.991,393.026,39.991z"/>
    <path d="M503.001,109.976h-21.995c-4.969,0-8.998,4.027-8.998,8.998c0,4.97,4.029,8.998,8.998,8.998h21.995
	c4.969,0,8.998-4.027,8.998-8.998C511.999,114.003,507.971,109.976,503.001,109.976z"/>
    <path d="M461.614,174.838c-3.514-3.513-9.212-3.513-12.724,0c-3.514,3.515-3.514,9.212,0,12.726l15.557,15.557
	c1.756,1.756,4.06,2.635,6.362,2.635c2.302,0,4.606-0.878,6.362-2.635c3.514-3.515,3.514-9.212,0-12.726L461.614,174.838z"/>
    <path d="M393.026,215.953c-4.969,0-8.998,4.027-8.998,8.998v13.996c0,4.97,4.029,8.998,8.998,8.998c4.969,0,8.998-4.027,8.998-8.998
	v-13.996C402.024,219.981,397.995,215.953,393.026,215.953z"/>
    <g>
</g>
    <g>
</g>
</svg>
